<?xml version="1.0" encoding="UTF-8"?>
<!DOCTYPE svg PUBLIC "-//W3C//DTD SVG 1.1//EN" "http://www.w3.org/Graphics/SVG/1.1/DTD/svg11.dtd">
<svg xmlns="http://www.w3.org/2000/svg" version="1.1" width="500px" height="500px" style="shape-rendering:geometricPrecision; text-rendering:geometricPrecision; image-rendering:optimizeQuality; fill-rule:evenodd; clip-rule:evenodd" xmlns:xlink="http://www.w3.org/1999/xlink">
<g><path style="opacity:1" fill="#94d8f6" d="M 401.5,79.5 C 399.973,79.427 398.973,80.0937 398.5,81.5C 396.251,82.0798 394.585,83.4131 393.5,85.5C 391.167,85.8333 389.833,87.1667 389.5,89.5C 386.911,90.4194 384.911,92.086 383.5,94.5C 379.564,96.7657 376.231,99.7657 373.5,103.5C 371.5,103.5 370.5,104.5 370.5,106.5C 366.229,109.101 362.563,112.434 359.5,116.5C 357.833,117.5 356.5,118.833 355.5,120.5C 353.5,120.5 352.5,121.5 352.5,123.5C 350.5,123.5 349.5,124.5 349.5,126.5C 346.833,127.167 345.167,128.833 344.5,131.5C 341.167,132.833 338.833,135.167 337.5,138.5C 336.833,138.5 336.5,138.833 336.5,139.5C 330.851,144.151 325.851,149.485 321.5,155.5C 318.097,157.9 315.43,160.9 313.5,164.5C 312.833,164.5 312.5,164.833 312.5,165.5C 309.48,167.523 307.146,170.19 305.5,173.5C 302.757,175.239 300.757,177.573 299.5,180.5C 296.781,182.219 294.781,184.553 293.5,187.5C 291.413,188.585 290.08,190.251 289.5,192.5C 287.14,193.865 285.473,195.865 284.5,198.5C 280.203,201.802 276.537,205.802 273.5,210.5C 263.477,207.953 253.477,205.453 243.5,203C 219.811,200.294 198.644,206.127 180,220.5C 179.617,219.944 179.117,219.611 178.5,219.5C 177.195,216.947 176.195,214.28 175.5,211.5C 175.065,208.843 174.065,206.509 172.5,204.5C 171.497,200.479 170.497,196.479 169.5,192.5C 169.554,189.008 168.554,186.008 166.5,183.5C 166.277,179.838 165.277,176.505 163.5,173.5C 163.5,172.5 163.5,171.5 163.5,170.5C 174.297,180.127 184.963,189.961 195.5,200C 196.5,200.667 197.5,200.667 198.5,200C 228.139,169.693 257.806,139.36 287.5,109C 302.444,107.881 317.444,107.048 332.5,106.5C 340.704,95.1446 349.037,83.9779 357.5,73C 369.5,72.3333 381.5,72.3333 393.5,73C 396.913,74.2459 399.579,76.4126 401.5,79.5 Z"/></g>
<g><path style="opacity:1" fill="#f4df8e" d="M 398.5,81.5 C 398.5,81.8333 398.5,82.1667 398.5,82.5C 397.078,83.925 395.411,84.925 393.5,85.5C 394.585,83.4131 396.251,82.0798 398.5,81.5 Z"/></g>
<g><path style="opacity:1" fill="#fecb2a" d="M 398.5,82.5 C 399.5,82.5 400.5,82.5 401.5,82.5C 401.95,92.2747 401.284,101.941 399.5,111.5C 399.5,111.833 399.5,112.167 399.5,112.5C 398.85,112.804 398.183,113.137 397.5,113.5C 396.555,116.788 395.888,120.121 395.5,123.5C 393.943,131.168 391.609,138.501 388.5,145.5C 387.883,145.611 387.383,145.944 387,146.5C 385.528,153.028 383.528,159.361 381,165.5C 380.5,173.827 380.334,182.16 380.5,190.5C 380.733,195.895 380.4,201.228 379.5,206.5C 378.732,207.263 378.232,208.263 378,209.5C 376.385,248.553 374.218,287.553 371.5,326.5C 370.167,326.5 368.833,326.5 367.5,326.5C 364.14,326.384 360.807,326.051 357.5,325.5C 356.5,325.5 355.5,325.5 354.5,325.5C 354.389,324.883 354.056,324.383 353.5,324C 349.506,323.055 345.506,322.222 341.5,321.5C 340.167,321.5 338.833,321.5 337.5,321.5C 336.167,321.5 334.833,321.5 333.5,321.5C 333.5,320.833 333.167,320.5 332.5,320.5C 331.158,319.207 329.491,318.374 327.5,318C 323.83,317.452 320.163,316.952 316.5,316.5C 316.993,314.194 317.326,311.861 317.5,309.5C 317.74,305.394 318.407,301.394 319.5,297.5C 320.655,290.679 320.821,283.679 320,276.5C 319.722,275.584 319.222,274.918 318.5,274.5C 317.597,267.488 315.597,260.821 312.5,254.5C 312.245,252.033 311.245,250.033 309.5,248.5C 305.327,240.326 299.994,232.993 293.5,226.5C 292.415,224.413 290.749,223.08 288.5,222.5C 283.25,219.055 278.25,215.388 273.5,211.5C 277.513,207.485 281.179,203.152 284.5,198.5C 286.89,197.109 288.557,195.109 289.5,192.5C 291.587,191.415 292.92,189.749 293.5,187.5C 296.19,185.807 298.19,183.473 299.5,180.5C 302.243,178.761 304.243,176.427 305.5,173.5C 308.55,171.451 310.883,168.784 312.5,165.5C 312.5,164.833 312.833,164.5 313.5,164.5C 316.903,162.1 319.57,159.1 321.5,155.5C 327.205,150.796 332.205,145.463 336.5,139.5C 336.5,138.833 336.833,138.5 337.5,138.5C 340.167,136.5 342.5,134.167 344.5,131.5C 346.5,130.167 348.167,128.5 349.5,126.5C 350.833,125.833 351.833,124.833 352.5,123.5C 353.833,122.833 354.833,121.833 355.5,120.5C 356.5,118.833 357.833,117.5 359.5,116.5C 363.771,113.899 367.437,110.566 370.5,106.5C 371.833,105.833 372.833,104.833 373.5,103.5C 377.436,101.234 380.769,98.2343 383.5,94.5C 386.089,93.5806 388.089,91.914 389.5,89.5C 391.167,88.5 392.5,87.1667 393.5,85.5C 395.411,84.925 397.078,83.925 398.5,82.5 Z"/></g>
<g><path style="opacity:1" fill="#ffd559" d="M 401.5,79.5 C 402.117,79.6107 402.617,79.944 403,80.5C 403.667,87.8333 403.667,95.1667 403,102.5C 402.275,105.79 401.108,108.79 399.5,111.5C 401.284,101.941 401.95,92.2747 401.5,82.5C 400.5,82.5 399.5,82.5 398.5,82.5C 398.5,82.1667 398.5,81.8333 398.5,81.5C 398.973,80.0937 399.973,79.427 401.5,79.5 Z"/></g>
<g><path style="opacity:1" fill="#ebe2a8" d="M 393.5,85.5 C 392.5,87.1667 391.167,88.5 389.5,89.5C 389.833,87.1667 391.167,85.8333 393.5,85.5 Z"/></g>
<g><path style="opacity:1" fill="#f5dd84" d="M 389.5,89.5 C 388.089,91.914 386.089,93.5806 383.5,94.5C 384.911,92.086 386.911,90.4194 389.5,89.5 Z"/></g>
<g><path style="opacity:1" fill="#f2df92" d="M 383.5,94.5 C 380.769,98.2343 377.436,101.234 373.5,103.5C 376.231,99.7657 379.564,96.7657 383.5,94.5 Z"/></g>
<g><path style="opacity:1" fill="#ece1a0" d="M 373.5,103.5 C 372.833,104.833 371.833,105.833 370.5,106.5C 370.5,104.5 371.5,103.5 373.5,103.5 Z"/></g>
<g><path style="opacity:1" fill="#f5de88" d="M 370.5,106.5 C 367.437,110.566 363.771,113.899 359.5,116.5C 362.563,112.434 366.229,109.101 370.5,106.5 Z"/></g>
<g><path style="opacity:1" fill="#ffd968" d="M 399.5,112.5 C 398.935,116.537 397.601,120.203 395.5,123.5C 395.888,120.121 396.555,116.788 397.5,113.5C 398.183,113.137 398.85,112.804 399.5,112.5 Z"/></g>
<g><path style="opacity:1" fill="#ece3aa" d="M 355.5,120.5 C 354.833,121.833 353.833,122.833 352.5,123.5C 352.5,121.5 353.5,120.5 355.5,120.5 Z"/></g>
<g><path style="opacity:1" fill="#ede2a6" d="M 352.5,123.5 C 351.833,124.833 350.833,125.833 349.5,126.5C 349.5,124.5 350.5,123.5 352.5,123.5 Z"/></g>
<g><path style="opacity:1" fill="#eee2a2" d="M 349.5,126.5 C 348.167,128.5 346.5,130.167 344.5,131.5C 345.167,128.833 346.833,127.167 349.5,126.5 Z"/></g>
<g><path style="opacity:1" fill="#ece2a7" d="M 344.5,131.5 C 342.5,134.167 340.167,136.5 337.5,138.5C 338.833,135.167 341.167,132.833 344.5,131.5 Z"/></g>
<g><path style="opacity:1" fill="#f2df93" d="M 336.5,139.5 C 332.205,145.463 327.205,150.796 321.5,155.5C 325.851,149.485 330.851,144.151 336.5,139.5 Z"/></g>
<g><path style="opacity:0.541" fill="#fddd78" d="M 150.5,158.5 C 148.146,158.162 145.813,157.662 143.5,157C 128.504,156.5 113.504,156.333 98.5,156.5C 98.5,195.5 98.5,234.5 98.5,273.5C 99.791,273.263 100.791,273.596 101.5,274.5C 100.167,274.5 98.8333,274.5 97.5,274.5C 97.5,234.833 97.5,195.167 97.5,155.5C 113.503,155.333 129.503,155.5 145.5,156C 147.491,156.374 149.158,157.207 150.5,158.5 Z"/></g>
<g><path style="opacity:1" fill="#fecb2a" d="M 150.5,158.5 C 155.44,161.77 159.773,165.77 163.5,170.5C 163.5,171.5 163.5,172.5 163.5,173.5C 163.723,177.162 164.723,180.495 166.5,183.5C 167.054,186.746 168.054,189.746 169.5,192.5C 170.497,196.479 171.497,200.479 172.5,204.5C 172.166,207.491 173.166,209.824 175.5,211.5C 176.195,214.28 177.195,216.947 178.5,219.5C 178.567,220.959 178.234,222.292 177.5,223.5C 174.573,224.757 172.239,226.757 170.5,229.5C 168.413,230.585 167.08,232.251 166.5,234.5C 163.713,236.72 161.38,239.386 159.5,242.5C 158.544,244.075 157.877,245.742 157.5,247.5C 155.058,249.121 153.725,251.454 153.5,254.5C 150.496,260.848 148.496,267.515 147.5,274.5C 146.883,274.611 146.383,274.944 146,275.5C 146.122,281.26 145.289,286.593 143.5,291.5C 141.958,290.699 140.292,290.366 138.5,290.5C 138.5,289.833 138.167,289.5 137.5,289.5C 137.586,288.504 137.252,287.671 136.5,287C 133.522,286.304 130.522,285.804 127.5,285.5C 127.5,284.833 127.167,284.5 126.5,284.5C 123.503,281.504 119.836,279.837 115.5,279.5C 113.421,279.029 111.421,278.363 109.5,277.5C 107.383,275.345 104.716,274.345 101.5,274.5C 100.791,273.596 99.791,273.263 98.5,273.5C 98.5,234.5 98.5,195.5 98.5,156.5C 113.504,156.333 128.504,156.5 143.5,157C 145.813,157.662 148.146,158.162 150.5,158.5 Z"/></g>
<g><path style="opacity:1" fill="#ffdb6e" d="M 388.5,145.5 C 387.135,151.961 385.301,158.294 383,164.5C 382.183,173.321 381.35,181.988 380.5,190.5C 380.334,182.16 380.5,173.827 381,165.5C 383.528,159.361 385.528,153.028 387,146.5C 387.383,145.944 387.883,145.611 388.5,145.5 Z"/></g>
<g><path style="opacity:1" fill="#f1e096" d="M 321.5,155.5 C 319.57,159.1 316.903,162.1 313.5,164.5C 315.43,160.9 318.097,157.9 321.5,155.5 Z"/></g>
<g><path style="opacity:1" fill="#ede1a0" d="M 312.5,165.5 C 310.883,168.784 308.55,171.451 305.5,173.5C 307.146,170.19 309.48,167.523 312.5,165.5 Z"/></g>
<g><path style="opacity:1" fill="#d3cf7a" d="M 163.5,173.5 C 165.277,176.505 166.277,179.838 166.5,183.5C 164.723,180.495 163.723,177.162 163.5,173.5 Z"/></g>
<g><path style="opacity:0.91" fill="#f0e09a" d="M 305.5,173.5 C 304.243,176.427 302.243,178.761 299.5,180.5C 300.757,177.573 302.757,175.239 305.5,173.5 Z"/></g>
<g><path style="opacity:0.98" fill="#f2df92" d="M 299.5,180.5 C 298.19,183.473 296.19,185.807 293.5,187.5C 294.781,184.553 296.781,182.219 299.5,180.5 Z"/></g>
<g><path style="opacity:1" fill="#b6d3b2" d="M 166.5,183.5 C 168.554,186.008 169.554,189.008 169.5,192.5C 168.054,189.746 167.054,186.746 166.5,183.5 Z"/></g>
<g><path style="opacity:0.933" fill="#f0e096" d="M 293.5,187.5 C 292.92,189.749 291.587,191.415 289.5,192.5C 290.08,190.251 291.413,188.585 293.5,187.5 Z"/></g>
<g><path style="opacity:0.863" fill="#f0e097" d="M 289.5,192.5 C 288.557,195.109 286.89,197.109 284.5,198.5C 285.473,195.865 287.14,193.865 289.5,192.5 Z"/></g>
<g><path style="opacity:1" fill="#eee1a0" d="M 284.5,198.5 C 281.179,203.152 277.513,207.485 273.5,211.5C 273.5,211.167 273.5,210.833 273.5,210.5C 276.537,205.802 280.203,201.802 284.5,198.5 Z"/></g>
<g><path style="opacity:1" fill="#dccf6b" d="M 172.5,204.5 C 174.065,206.509 175.065,208.843 175.5,211.5C 173.166,209.824 172.166,207.491 172.5,204.5 Z"/></g>
<g><path style="opacity:1" fill="#fedf81" d="M 288.5,222.5 C 290.749,223.08 292.415,224.413 293.5,226.5C 291.251,225.92 289.585,224.587 288.5,222.5 Z"/></g>
<g><path style="opacity:1" fill="#feecb7" d="M 177.5,223.5 C 175.761,226.243 173.427,228.243 170.5,229.5C 172.239,226.757 174.573,224.757 177.5,223.5 Z"/></g>
<g><path style="opacity:1" fill="#feeaad" d="M 170.5,229.5 C 169.92,231.749 168.587,233.415 166.5,234.5C 167.08,232.251 168.413,230.585 170.5,229.5 Z"/></g>
<g><path style="opacity:1" fill="#05ac57" d="M 163.5,244.5 C 167.402,246.893 170.902,249.893 174,253.5C 176.875,258.595 179.708,263.595 182.5,268.5C 184.213,271.86 185.88,275.193 187.5,278.5C 185.345,278.372 183.345,278.872 181.5,280C 175.472,285.395 170.139,291.395 165.5,298C 160.681,300.024 156.014,302.191 151.5,304.5C 151.599,301.763 151.265,299.096 150.5,296.5C 150.362,288.094 151.029,279.76 152.5,271.5C 152.5,271.167 152.5,270.833 152.5,270.5C 156.357,263.601 159.357,256.267 161.5,248.5C 161.733,246.938 162.4,245.605 163.5,244.5 Z"/></g>
<g><path style="opacity:1" fill="#4e7a62" d="M 166.5,242.5 C 170.068,247.249 173.901,251.916 178,256.5C 180.354,260.202 181.854,264.202 182.5,268.5C 179.708,263.595 176.875,258.595 174,253.5C 170.902,249.893 167.402,246.893 163.5,244.5C 163.973,243.094 164.973,242.427 166.5,242.5 Z"/></g>
<g><path style="opacity:1" fill="#fee59a" d="M 157.5,247.5 C 156.532,250.1 155.199,252.434 153.5,254.5C 153.725,251.454 155.058,249.121 157.5,247.5 Z"/></g>
<g><path style="opacity:1" fill="#f4f5e8" d="M 166.5,234.5 C 165.043,236.628 164.043,238.962 163.5,241.5C 164.791,241.263 165.791,241.596 166.5,242.5C 164.973,242.427 163.973,243.094 163.5,244.5C 162.4,245.605 161.733,246.938 161.5,248.5C 159.864,249.749 158.697,251.416 158,253.5C 155.675,258.977 153.841,264.644 152.5,270.5C 152.5,270.833 152.5,271.167 152.5,271.5C 151.4,273.277 150.566,275.277 150,277.5C 149.18,284.014 149.347,290.347 150.5,296.5C 151.265,299.096 151.599,301.763 151.5,304.5C 151.5,305.167 151.5,305.833 151.5,306.5C 149.044,303.008 147.877,299.008 148,294.5C 147.617,293.944 147.117,293.611 146.5,293.5C 145.209,293.737 144.209,293.404 143.5,292.5C 144.5,292.5 145.5,292.5 146.5,292.5C 146.36,286.464 146.693,280.464 147.5,274.5C 148.496,267.515 150.496,260.848 153.5,254.5C 155.199,252.434 156.532,250.1 157.5,247.5C 157.877,245.742 158.544,244.075 159.5,242.5C 161.38,239.386 163.713,236.72 166.5,234.5 Z"/></g>
<g><path style="opacity:1" fill="#fee9a9" d="M 309.5,248.5 C 311.245,250.033 312.245,252.033 312.5,254.5C 310.755,252.967 309.755,250.967 309.5,248.5 Z"/></g>
<g><path style="opacity:1" fill="#52c485" d="M 161.5,248.5 C 159.357,256.267 156.357,263.601 152.5,270.5C 153.841,264.644 155.675,258.977 158,253.5C 158.697,251.416 159.864,249.749 161.5,248.5 Z"/></g>
<g><path style="opacity:0.843" fill="#ffdb6f" d="M 379.5,206.5 C 377.623,246.869 375.289,287.202 372.5,327.5C 370.585,327.784 368.919,327.451 367.5,326.5C 368.833,326.5 370.167,326.5 371.5,326.5C 374.218,287.553 376.385,248.553 378,209.5C 378.232,208.263 378.732,207.263 379.5,206.5 Z"/></g>
<g><path style="opacity:1" fill="#c3a249" d="M 101.5,275.5 C 101.5,275.167 101.5,274.833 101.5,274.5C 104.716,274.345 107.383,275.345 109.5,277.5C 108.167,277.167 106.833,276.833 105.5,276.5C 104.292,275.766 102.959,275.433 101.5,275.5 Z"/></g>
<g><path style="opacity:1" fill="#384291" d="M 101.5,275.5 C 102.959,275.433 104.292,275.766 105.5,276.5C 105.804,277.15 106.137,277.817 106.5,278.5C 109.438,279.489 112.438,280.156 115.5,280.5C 119.058,282.112 122.725,283.445 126.5,284.5C 127.167,284.5 127.5,284.833 127.5,285.5C 130.678,287.009 134.011,288.342 137.5,289.5C 138.167,289.5 138.5,289.833 138.5,290.5C 139.93,291.537 141.597,292.204 143.5,292.5C 144.209,293.404 145.209,293.737 146.5,293.5C 147.28,305.285 149.946,316.619 154.5,327.5C 154.6,330.108 153.933,332.442 152.5,334.5C 150.178,335.802 148.845,337.802 148.5,340.5C 139.427,352.307 131.093,364.64 123.5,377.5C 120.449,381.223 117.782,385.223 115.5,389.5C 109.767,395.963 104.767,402.963 100.5,410.5C 99.8826,410.611 99.3826,410.944 99,411.5C 98.5,366.168 98.3333,320.835 98.5,275.5C 99.5,275.5 100.5,275.5 101.5,275.5 Z"/></g>
<g><path style="opacity:1" fill="#5f597f" d="M 105.5,276.5 C 106.833,276.833 108.167,277.167 109.5,277.5C 111.421,278.363 113.421,279.029 115.5,279.5C 115.5,279.833 115.5,280.167 115.5,280.5C 112.438,280.156 109.438,279.489 106.5,278.5C 106.137,277.817 105.804,277.15 105.5,276.5 Z"/></g>
<g><path style="opacity:1" fill="#c4a24a" d="M 115.5,280.5 C 115.5,280.167 115.5,279.833 115.5,279.5C 119.836,279.837 123.503,281.504 126.5,284.5C 122.725,283.445 119.058,282.112 115.5,280.5 Z"/></g>
<g><path style="opacity:1" fill="#f3f6f5" d="M 273.5,210.5 C 273.5,210.833 273.5,211.167 273.5,211.5C 278.25,215.388 283.25,219.055 288.5,222.5C 289.585,224.587 291.251,225.92 293.5,226.5C 299.994,232.993 305.327,240.326 309.5,248.5C 309.755,250.967 310.755,252.967 312.5,254.5C 315.597,260.821 317.597,267.488 318.5,274.5C 319.358,282.132 319.691,289.799 319.5,297.5C 318.407,301.394 317.74,305.394 317.5,309.5C 315.688,311.713 315.355,314.047 316.5,316.5C 316.5,316.833 316.5,317.167 316.5,317.5C 313.625,319.249 312.292,321.915 312.5,325.5C 311.662,325.842 311.328,326.508 311.5,327.5C 310.624,327.369 309.957,327.702 309.5,328.5C 307.477,332.181 305.477,335.847 303.5,339.5C 301.016,341.8 299.016,344.467 297.5,347.5C 290.781,353.877 283.447,359.543 275.5,364.5C 271.701,365.421 268.368,367.088 265.5,369.5C 259.688,371.787 253.688,373.453 247.5,374.5C 242.819,374.669 238.152,375.002 233.5,375.5C 198.276,375.412 172.609,359.912 156.5,329C 156.164,327.97 155.497,327.47 154.5,327.5C 149.946,316.619 147.28,305.285 146.5,293.5C 147.117,293.611 147.617,293.944 148,294.5C 147.877,299.008 149.044,303.008 151.5,306.5C 155.501,304.567 159.835,303.067 164.5,302C 170.032,295.307 175.698,288.807 181.5,282.5C 183.827,282.753 185.827,282.086 187.5,280.5C 189.391,286.468 187.891,291.468 183,295.5C 182.316,296.784 182.483,297.951 183.5,299C 189.255,299.212 194.089,297.045 198,292.5C 199.479,289.059 201.145,285.726 203,282.5C 205.892,279.918 208.725,280.084 211.5,283C 208.329,285.341 205.329,287.841 202.5,290.5C 203,290.833 203.5,291.167 204,291.5C 206.512,289.911 209.178,288.578 212,287.5C 213.756,288.932 215.256,290.599 216.5,292.5C 213.944,294.155 211.277,295.821 208.5,297.5C 207.614,298.325 207.281,299.325 207.5,300.5C 210.59,298.791 213.923,297.458 217.5,296.5C 220.357,298.018 222.024,300.351 222.5,303.5C 217.854,304.151 214.187,306.318 211.5,310C 213.615,313.118 216.115,315.952 219,318.5C 219.216,320.384 219.883,322.051 221,323.5C 221.824,326.882 221.657,330.216 220.5,333.5C 218.452,328.716 215.452,324.716 211.5,321.5C 201.221,319.574 190.554,318.574 179.5,318.5C 176.5,318.667 173.5,318.833 170.5,319C 169.944,319.383 169.611,319.883 169.5,320.5C 166.401,322.145 163.068,323.312 159.5,324C 158.226,324.977 158.226,325.811 159.5,326.5C 169.205,346.541 184.538,360.208 205.5,367.5C 207.364,368.793 209.364,368.793 211.5,367.5C 212.288,363.704 212.954,359.871 213.5,356C 211.101,348.164 208.768,340.331 206.5,332.5C 206.5,329.167 206.5,325.833 206.5,322.5C 209.614,323.091 212.114,324.758 214,327.5C 215.601,330.982 217.434,334.315 219.5,337.5C 220.833,336.833 222.167,336.167 223.5,335.5C 224.66,331.541 224.827,327.541 224,323.5C 221.837,319.033 219.337,314.866 216.5,311C 217.123,307.839 219.123,306.339 222.5,306.5C 222.701,310.574 223.368,314.574 224.5,318.5C 225.167,317.167 225.833,315.833 226.5,314.5C 228.5,315.833 230.5,317.167 232.5,318.5C 226.154,319.705 225.154,322.538 229.5,327C 235.53,329.684 241.53,332.35 247.5,335C 248.252,335.671 248.586,336.504 248.5,337.5C 247.599,338.29 246.932,339.29 246.5,340.5C 241.409,344.65 237.243,349.65 234,355.5C 232.449,360.954 232.282,366.288 233.5,371.5C 243.036,371.858 252.036,370.191 260.5,366.5C 263.716,366.655 266.383,365.655 268.5,363.5C 270.967,363.245 272.967,362.245 274.5,360.5C 280.047,357.221 285.047,353.221 289.5,348.5C 290.803,346.243 290.136,344.41 287.5,343C 279.173,341.448 270.84,340.281 262.5,339.5C 252.073,334.459 241.406,329.625 230.5,325C 229.663,323.989 229.33,322.822 229.5,321.5C 238.084,322.305 246.251,324.638 254,328.5C 254.5,328.167 255,327.833 255.5,327.5C 251.668,324.25 247.334,322.084 242.5,321C 237.276,318.048 231.943,315.048 226.5,312C 223.523,309.881 223.856,308.714 227.5,308.5C 236.684,311.044 245.684,314.044 254.5,317.5C 255.167,317.167 255.833,316.833 256.5,316.5C 245.966,311.151 235.299,305.984 224.5,301C 222.369,299.112 222.369,297.612 224.5,296.5C 236.942,299.536 248.775,303.869 260,309.5C 260.5,309.167 261,308.833 261.5,308.5C 252.731,302.939 244.065,297.106 235.5,291C 234.663,289.989 234.33,288.822 234.5,287.5C 236.857,287.337 239.19,287.503 241.5,288C 244.533,290.208 247.866,291.708 251.5,292.5C 253.888,295.09 256.888,296.757 260.5,297.5C 262.997,299.871 265.997,300.871 269.5,300.5C 268.795,290.228 272.962,282.895 282,278.5C 282.5,278.833 283,279.167 283.5,279.5C 278.504,285.138 277.337,291.471 280,298.5C 280.383,299.056 280.883,299.389 281.5,299.5C 283.351,301.776 285.018,304.109 286.5,306.5C 286.592,310.684 288.259,314.017 291.5,316.5C 294.383,322.055 298.383,326.722 303.5,330.5C 304.298,330.043 304.631,329.376 304.5,328.5C 306.326,326.853 307.66,324.853 308.5,322.5C 313.428,315.032 315.761,306.698 315.5,297.5C 316.165,294.518 316.498,291.352 316.5,288C 316.621,282.589 315.954,277.423 314.5,272.5C 314.582,270.748 313.749,269.748 312,269.5C 309.704,269.859 307.871,270.859 306.5,272.5C 302.641,273.352 299.974,275.686 298.5,279.5C 293.465,283.207 289.465,287.874 286.5,293.5C 284.973,293.427 283.973,294.094 283.5,295.5C 282.5,295.5 281.5,295.5 280.5,295.5C 280.337,293.143 280.503,290.81 281,288.5C 282.85,285.323 284.683,282.157 286.5,279C 285.631,277.298 284.298,276.131 282.5,275.5C 273.615,278.286 268.781,284.286 268,293.5C 267.617,294.056 267.117,294.389 266.5,294.5C 264.473,294.662 262.473,294.495 260.5,294C 259.316,292.855 259.316,291.688 260.5,290.5C 261.622,289.053 263.122,288.053 265,287.5C 265.167,287.167 265.333,286.833 265.5,286.5C 264.667,286.167 263.833,285.833 263,285.5C 259.512,286.911 256.178,288.577 253,290.5C 248.724,290.523 247.224,288.69 248.5,285C 252.165,283.503 255.498,281.503 258.5,279C 259.696,278.346 259.696,277.846 258.5,277.5C 248.247,281.961 237.913,285.628 227.5,288.5C 227.539,287.417 227.873,286.417 228.5,285.5C 231.92,282.068 235.587,279.068 239.5,276.5C 245.193,273.786 250.86,271.119 256.5,268.5C 256.649,267.448 256.483,266.448 256,265.5C 247.27,260.651 243.937,253.318 246,243.5C 248.257,247.012 250.757,250.346 253.5,253.5C 254.577,254.705 255.91,255.372 257.5,255.5C 269.398,255.981 281.398,256.148 293.5,256C 297.53,254.382 301.53,252.882 305.5,251.5C 305.768,249.901 305.434,248.568 304.5,247.5C 296.479,234.48 285.812,224.146 272.5,216.5C 269.665,214.215 266.332,212.882 262.5,212.5C 262.167,212.5 261.833,212.5 261.5,212.5C 256.975,219.133 255.642,226.466 257.5,234.5C 257.585,238.849 257.918,243.182 258.5,247.5C 258.444,249.64 257.777,251.306 256.5,252.5C 252.357,249.566 249.691,245.566 248.5,240.5C 246.813,239.432 245.146,239.599 243.5,241C 242.374,244.744 242.207,248.577 243,252.5C 245.118,256.401 246.952,260.401 248.5,264.5C 248.364,269.204 246.031,272.204 241.5,273.5C 240.526,271.257 240.192,268.924 240.5,266.5C 240.785,264.712 240.452,263.045 239.5,261.5C 239.167,261.833 238.833,262.167 238.5,262.5C 237.776,267.172 236.943,271.838 236,276.5C 234.887,277.305 233.721,277.972 232.5,278.5C 231.213,277.129 230.547,275.295 230.5,273C 231.04,268.511 231.374,264.011 231.5,259.5C 230.209,259.263 229.209,259.596 228.5,260.5C 225.954,270.363 222.954,280.029 219.5,289.5C 219.5,289.833 219.5,290.167 219.5,290.5C 218.5,290.5 217.5,290.5 216.5,290.5C 216.515,278.746 217.515,267.079 219.5,255.5C 214.156,255.666 208.823,255.499 203.5,255C 200.079,253.411 197.079,251.245 194.5,248.5C 199.74,248.426 205.074,248.259 210.5,248C 213.987,247.011 216.32,244.845 217.5,241.5C 224.145,235.016 230.311,228.016 236,220.5C 238.02,216.144 238.853,211.811 238.5,207.5C 233.5,206.167 228.5,206.167 223.5,207.5C 219.511,207.116 215.845,207.783 212.5,209.5C 209.921,209.394 207.588,210.061 205.5,211.5C 201.299,212.223 197.632,213.89 194.5,216.5C 189.64,218.761 185.307,221.761 181.5,225.5C 180.197,227.757 180.864,229.59 183.5,231C 185.813,231.662 188.146,232.162 190.5,232.5C 190.918,233.222 191.584,233.722 192.5,234C 196.17,234.548 199.837,235.048 203.5,235.5C 205.117,236.038 206.784,236.371 208.5,236.5C 210.033,238.245 212.033,239.245 214.5,239.5C 214.833,239.5 215.167,239.5 215.5,239.5C 214.985,243.453 212.652,245.619 208.5,246C 203.053,246.635 197.72,246.135 192.5,244.5C 192.201,246.604 192.534,248.604 193.5,250.5C 194.941,251.865 196.274,253.365 197.5,255C 203.438,257.147 209.438,258.98 215.5,260.5C 216.48,263.086 216.813,265.753 216.5,268.5C 214.046,268.679 211.879,268.013 210,266.5C 209.5,266.833 209,267.167 208.5,267.5C 210.029,269.188 211.863,270.521 214,271.5C 214.497,274.146 214.664,276.813 214.5,279.5C 209.604,278.381 204.937,276.715 200.5,274.5C 200.784,284.86 196.451,292.526 187.5,297.5C 187.167,297 186.833,296.5 186.5,296C 188.238,293.357 189.572,290.523 190.5,287.5C 191.638,284.696 191.805,281.696 191,278.5C 188.331,275 185.498,271.667 182.5,268.5C 181.854,264.202 180.354,260.202 178,256.5C 173.901,251.916 170.068,247.249 166.5,242.5C 165.791,241.596 164.791,241.263 163.5,241.5C 164.043,238.962 165.043,236.628 166.5,234.5C 168.587,233.415 169.92,231.749 170.5,229.5C 173.427,228.243 175.761,226.243 177.5,223.5C 178.234,222.292 178.567,220.959 178.5,219.5C 179.117,219.611 179.617,219.944 180,220.5C 198.644,206.127 219.811,200.294 243.5,203C 253.477,205.453 263.477,207.953 273.5,210.5 Z"/></g>
<g><path style="opacity:1" fill="#347551" d="M 313.5,272.5 C 310.357,273.037 307.357,274.037 304.5,275.5C 301.449,278.879 298.449,282.212 295.5,285.5C 295.975,283.216 296.975,281.216 298.5,279.5C 299.974,275.686 302.641,273.352 306.5,272.5C 308.979,271.377 311.312,271.377 313.5,272.5 Z"/></g>
<g><path style="opacity:1" fill="#557464" d="M 228.5,260.5 C 229.497,260.47 230.164,260.97 230.5,262C 229.165,268.498 228.832,274.998 229.5,281.5C 230.548,280.452 231.548,279.452 232.5,278.5C 233.721,277.972 234.887,277.305 236,276.5C 236.943,271.838 237.776,267.172 238.5,262.5C 238.833,262.167 239.167,261.833 239.5,261.5C 240.452,263.045 240.785,264.712 240.5,266.5C 239.521,269.625 239.187,272.958 239.5,276.5C 235.587,279.068 231.92,282.068 228.5,285.5C 227.873,286.417 227.539,287.417 227.5,288.5C 226.85,288.196 226.183,287.863 225.5,287.5C 223.821,289.104 221.821,289.771 219.5,289.5C 222.954,280.029 225.954,270.363 228.5,260.5 Z"/></g>
<g><path style="opacity:1" fill="#a8b8b0" d="M 224.5,279.5 C 226.344,281.279 227.01,283.612 226.5,286.5C 225.5,286.5 224.5,286.5 223.5,286.5C 223.674,284.139 224.007,281.806 224.5,279.5 Z"/></g>
<g><path style="opacity:1" fill="#698476" d="M 283.5,295.5 C 283.5,296.167 283.5,296.833 283.5,297.5C 283.167,297.5 282.833,297.5 282.5,297.5C 281.662,297.842 281.328,298.508 281.5,299.5C 280.883,299.389 280.383,299.056 280,298.5C 277.337,291.471 278.504,285.138 283.5,279.5C 283,279.167 282.5,278.833 282,278.5C 272.962,282.895 268.795,290.228 269.5,300.5C 265.997,300.871 262.997,299.871 260.5,297.5C 260.389,296.883 260.056,296.383 259.5,296C 261.035,295.504 262.535,295.67 264,296.5C 265.301,296.361 266.134,295.695 266.5,294.5C 267.117,294.389 267.617,294.056 268,293.5C 268.781,284.286 273.615,278.286 282.5,275.5C 284.298,276.131 285.631,277.298 286.5,279C 284.683,282.157 282.85,285.323 281,288.5C 280.503,290.81 280.337,293.143 280.5,295.5C 281.5,295.5 282.5,295.5 283.5,295.5 Z"/></g>
<g><path style="opacity:1" fill="#c9d2cd" d="M 228.5,260.5 C 229.209,259.596 230.209,259.263 231.5,259.5C 231.374,264.011 231.04,268.511 230.5,273C 230.547,275.295 231.213,277.129 232.5,278.5C 231.548,279.452 230.548,280.452 229.5,281.5C 228.832,274.998 229.165,268.498 230.5,262C 230.164,260.97 229.497,260.47 228.5,260.5 Z"/></g>
<g><path style="opacity:1" fill="#08ac58" d="M 313.5,272.5 C 313.833,272.5 314.167,272.5 314.5,272.5C 315.185,280.816 315.518,289.149 315.5,297.5C 314.223,306.014 311.89,314.347 308.5,322.5C 307.66,324.853 306.326,326.853 304.5,328.5C 302.608,327.298 300.774,325.965 299,324.5C 294.122,318.078 290.289,311.078 287.5,303.5C 285.062,302.069 283.396,300.069 282.5,297.5C 282.833,297.5 283.167,297.5 283.5,297.5C 288.5,294.5 292.5,290.5 295.5,285.5C 298.449,282.212 301.449,278.879 304.5,275.5C 307.357,274.037 310.357,273.037 313.5,272.5 Z"/></g>
<g><path style="opacity:1" fill="#94aca0" d="M 314.5,272.5 C 314.167,272.5 313.833,272.5 313.5,272.5C 311.312,271.377 308.979,271.377 306.5,272.5C 307.871,270.859 309.704,269.859 312,269.5C 313.749,269.748 314.582,270.748 314.5,272.5 Z"/></g>
<g><path style="opacity:1" fill="#376f51" d="M 260.5,221.5 C 260.567,223.401 260.233,225.234 259.5,227C 260.752,236.113 261.419,245.28 261.5,254.5C 272.132,254.074 282.799,253.908 293.5,254C 296.589,252.023 299.923,250.523 303.5,249.5C 304.298,249.043 304.631,248.376 304.5,247.5C 305.434,248.568 305.768,249.901 305.5,251.5C 301.53,252.882 297.53,254.382 293.5,256C 281.398,256.148 269.398,255.981 257.5,255.5C 258.209,254.596 259.209,254.263 260.5,254.5C 260.813,250.958 260.479,247.625 259.5,244.5C 259.384,241.14 259.051,237.807 258.5,234.5C 258.335,230.818 258.501,227.152 259,223.5C 259.278,222.584 259.778,221.918 260.5,221.5 Z"/></g>
<g><path style="opacity:1" fill="#698577" d="M 256.5,252.5 C 257.209,253.404 258.209,253.737 259.5,253.5C 259.5,250.5 259.5,247.5 259.5,244.5C 260.479,247.625 260.813,250.958 260.5,254.5C 259.209,254.263 258.209,254.596 257.5,255.5C 255.91,255.372 254.577,254.705 253.5,253.5C 250.757,250.346 248.257,247.012 246,243.5C 243.937,253.318 247.27,260.651 256,265.5C 256.483,266.448 256.649,267.448 256.5,268.5C 250.86,271.119 245.193,273.786 239.5,276.5C 239.187,272.958 239.521,269.625 240.5,266.5C 240.192,268.924 240.526,271.257 241.5,273.5C 246.031,272.204 248.364,269.204 248.5,264.5C 246.952,260.401 245.118,256.401 243,252.5C 242.207,248.577 242.374,244.744 243.5,241C 245.146,239.599 246.813,239.432 248.5,240.5C 249.691,245.566 252.357,249.566 256.5,252.5 Z"/></g>
<g><path style="opacity:1" fill="#aab9b1" d="M 257.5,234.5 C 257.833,234.5 258.167,234.5 258.5,234.5C 259.051,237.807 259.384,241.14 259.5,244.5C 259.5,247.5 259.5,250.5 259.5,253.5C 258.209,253.737 257.209,253.404 256.5,252.5C 257.777,251.306 258.444,249.64 258.5,247.5C 257.918,243.182 257.585,238.849 257.5,234.5 Z"/></g>
<g><path style="opacity:1" fill="#95a99f" d="M 208.5,236.5 C 210.967,236.755 212.967,237.755 214.5,239.5C 212.033,239.245 210.033,238.245 208.5,236.5 Z"/></g>
<g><path style="opacity:1" fill="#91a69b" d="M 190.5,232.5 C 195.124,232.763 199.458,233.763 203.5,235.5C 199.837,235.048 196.17,234.548 192.5,234C 191.584,233.722 190.918,233.222 190.5,232.5 Z"/></g>
<g><path style="opacity:1" fill="#3b7355" d="M 238.5,207.5 C 238.853,211.811 238.02,216.144 236,220.5C 230.311,228.016 224.145,235.016 217.5,241.5C 216.833,240.833 216.167,240.167 215.5,239.5C 215.167,239.5 214.833,239.5 214.5,239.5C 212.967,237.755 210.967,236.755 208.5,236.5C 206.784,236.371 205.117,236.038 203.5,235.5C 199.458,233.763 195.124,232.763 190.5,232.5C 188.146,232.162 185.813,231.662 183.5,231C 180.864,229.59 180.197,227.757 181.5,225.5C 182.614,226.885 183.614,228.385 184.5,230C 196.224,231.281 207.557,233.614 218.5,237C 224.906,230.712 230.739,223.879 236,216.5C 236.841,213.372 237.675,210.372 238.5,207.5 Z"/></g>
<g><path style="opacity:1" fill="#5d836e" d="M 261.5,212.5 C 261.296,215.518 260.963,218.518 260.5,221.5C 259.778,221.918 259.278,222.584 259,223.5C 258.501,227.152 258.335,230.818 258.5,234.5C 258.167,234.5 257.833,234.5 257.5,234.5C 255.642,226.466 256.975,219.133 261.5,212.5 Z"/></g>
<g><path style="opacity:1" fill="#7fd3a7" d="M 262.5,212.5 C 266.332,212.882 269.665,214.215 272.5,216.5C 269.546,215.572 266.546,214.739 263.5,214C 262.944,213.617 262.611,213.117 262.5,212.5 Z"/></g>
<g><path style="opacity:1" fill="#0aac58" d="M 261.5,212.5 C 261.833,212.5 262.167,212.5 262.5,212.5C 262.611,213.117 262.944,213.617 263.5,214C 266.546,214.739 269.546,215.572 272.5,216.5C 285.812,224.146 296.479,234.48 304.5,247.5C 304.631,248.376 304.298,249.043 303.5,249.5C 299.923,250.523 296.589,252.023 293.5,254C 282.799,253.908 272.132,254.074 261.5,254.5C 261.419,245.28 260.752,236.113 259.5,227C 260.233,225.234 260.567,223.401 260.5,221.5C 260.963,218.518 261.296,215.518 261.5,212.5 Z"/></g>
<g><path style="opacity:1" fill="#7ad2a4" d="M 205.5,211.5 C 202.291,213.934 198.624,215.601 194.5,216.5C 197.632,213.89 201.299,212.223 205.5,211.5 Z"/></g>
<g><path style="opacity:1" fill="#0ead59" d="M 238.5,207.5 C 237.675,210.372 236.841,213.372 236,216.5C 230.739,223.879 224.906,230.712 218.5,237C 207.557,233.614 196.224,231.281 184.5,230C 183.614,228.385 182.614,226.885 181.5,225.5C 185.307,221.761 189.64,218.761 194.5,216.5C 198.624,215.601 202.291,213.934 205.5,211.5C 207.588,210.061 209.921,209.394 212.5,209.5C 216.489,209.884 220.155,209.217 223.5,207.5C 228.5,206.167 233.5,206.167 238.5,207.5 Z"/></g>
<g><path style="opacity:1" fill="#58c78c" d="M 223.5,207.5 C 220.155,209.217 216.489,209.884 212.5,209.5C 215.845,207.783 219.511,207.116 223.5,207.5 Z"/></g>
<g><path style="opacity:1" fill="#698476" d="M 215.5,239.5 C 216.167,240.167 216.833,240.833 217.5,241.5C 216.32,244.845 213.987,247.011 210.5,248C 205.074,248.259 199.74,248.426 194.5,248.5C 197.079,251.245 200.079,253.411 203.5,255C 208.823,255.499 214.156,255.666 219.5,255.5C 217.515,267.079 216.515,278.746 216.5,290.5C 217.5,290.5 218.5,290.5 219.5,290.5C 218.5,291.167 217.5,291.833 216.5,292.5C 215.256,290.599 213.756,288.932 212,287.5C 209.178,288.578 206.512,289.911 204,291.5C 203.5,291.167 203,290.833 202.5,290.5C 205.329,287.841 208.329,285.341 211.5,283C 208.725,280.084 205.892,279.918 203,282.5C 201.145,285.726 199.479,289.059 198,292.5C 194.089,297.045 189.255,299.212 183.5,299C 182.483,297.951 182.316,296.784 183,295.5C 187.891,291.468 189.391,286.468 187.5,280.5C 185.827,282.086 183.827,282.753 181.5,282.5C 183.617,280.345 186.284,279.345 189.5,279.5C 189.194,282.385 189.527,285.052 190.5,287.5C 189.572,290.523 188.238,293.357 186.5,296C 186.833,296.5 187.167,297 187.5,297.5C 196.451,292.526 200.784,284.86 200.5,274.5C 204.937,276.715 209.604,278.381 214.5,279.5C 214.664,276.813 214.497,274.146 214,271.5C 211.863,270.521 210.029,269.188 208.5,267.5C 209,267.167 209.5,266.833 210,266.5C 211.879,268.013 214.046,268.679 216.5,268.5C 216.813,265.753 216.48,263.086 215.5,260.5C 209.438,258.98 203.438,257.147 197.5,255C 196.274,253.365 194.941,251.865 193.5,250.5C 192.534,248.604 192.201,246.604 192.5,244.5C 197.72,246.135 203.053,246.635 208.5,246C 212.652,245.619 214.985,243.453 215.5,239.5 Z"/></g>
<g><path style="opacity:1" fill="#b3e6cc" d="M 152.5,271.5 C 151.029,279.76 150.362,288.094 150.5,296.5C 149.347,290.347 149.18,284.014 150,277.5C 150.566,275.277 151.4,273.277 152.5,271.5 Z"/></g>
<g><path style="opacity:1" fill="#b7e7cf" d="M 314.5,272.5 C 315.954,277.423 316.621,282.589 316.5,288C 316.498,291.352 316.165,294.518 315.5,297.5C 315.518,289.149 315.185,280.816 314.5,272.5 Z"/></g>
<g><path style="opacity:1" fill="#c6a34a" d="M 127.5,285.5 C 130.522,285.804 133.522,286.304 136.5,287C 137.252,287.671 137.586,288.504 137.5,289.5C 134.011,288.342 130.678,287.009 127.5,285.5 Z"/></g>
<g><path style="opacity:1" fill="#829b8e" d="M 298.5,279.5 C 296.975,281.216 295.975,283.216 295.5,285.5C 292.521,288.042 289.521,290.709 286.5,293.5C 289.465,287.874 293.465,283.207 298.5,279.5 Z"/></g>
<g><path style="opacity:1" fill="#fedc72" d="M 318.5,274.5 C 319.222,274.918 319.722,275.584 320,276.5C 320.821,283.679 320.655,290.679 319.5,297.5C 319.691,289.799 319.358,282.132 318.5,274.5 Z"/></g>
<g><path style="opacity:1" fill="#f9d564" d="M 147.5,274.5 C 146.693,280.464 146.36,286.464 146.5,292.5C 145.5,292.5 144.5,292.5 143.5,292.5C 143.5,292.167 143.5,291.833 143.5,291.5C 145.289,286.593 146.122,281.26 146,275.5C 146.383,274.944 146.883,274.611 147.5,274.5 Z"/></g>
<g><path style="opacity:1" fill="#5e7c6c" d="M 260.5,290.5 C 258.088,290.694 257.088,292.027 257.5,294.5C 255.315,294.296 253.315,293.63 251.5,292.5C 247.866,291.708 244.533,290.208 241.5,288C 239.19,287.503 236.857,287.337 234.5,287.5C 234.33,288.822 234.663,289.989 235.5,291C 244.065,297.106 252.731,302.939 261.5,308.5C 261,308.833 260.5,309.167 260,309.5C 248.775,303.869 236.942,299.536 224.5,296.5C 222.369,297.612 222.369,299.112 224.5,301C 235.299,305.984 245.966,311.151 256.5,316.5C 255.833,316.833 255.167,317.167 254.5,317.5C 245.684,314.044 236.684,311.044 227.5,308.5C 223.856,308.714 223.523,309.881 226.5,312C 231.943,315.048 237.276,318.048 242.5,321C 247.334,322.084 251.668,324.25 255.5,327.5C 255,327.833 254.5,328.167 254,328.5C 246.251,324.638 238.084,322.305 229.5,321.5C 229.33,322.822 229.663,323.989 230.5,325C 241.406,329.625 252.073,334.459 262.5,339.5C 259.598,338.422 256.598,337.756 253.5,337.5C 251.95,336.28 250.284,336.28 248.5,337.5C 248.586,336.504 248.252,335.671 247.5,335C 241.53,332.35 235.53,329.684 229.5,327C 225.154,322.538 226.154,319.705 232.5,318.5C 230.5,317.167 228.5,315.833 226.5,314.5C 225.833,315.833 225.167,317.167 224.5,318.5C 223.368,314.574 222.701,310.574 222.5,306.5C 219.123,306.339 217.123,307.839 216.5,311C 219.337,314.866 221.837,319.033 224,323.5C 224.827,327.541 224.66,331.541 223.5,335.5C 222.167,336.167 220.833,336.833 219.5,337.5C 217.434,334.315 215.601,330.982 214,327.5C 212.114,324.758 209.614,323.091 206.5,322.5C 206.5,325.833 206.5,329.167 206.5,332.5C 205.518,329.038 205.185,325.371 205.5,321.5C 200.5,321.5 195.5,321.5 190.5,321.5C 190.5,321.167 190.5,320.833 190.5,320.5C 197.557,320.24 204.557,320.573 211.5,321.5C 215.452,324.716 218.452,328.716 220.5,333.5C 221.657,330.216 221.824,326.882 221,323.5C 219.883,322.051 219.216,320.384 219,318.5C 216.115,315.952 213.615,313.118 211.5,310C 214.187,306.318 217.854,304.151 222.5,303.5C 222.024,300.351 220.357,298.018 217.5,296.5C 213.923,297.458 210.59,298.791 207.5,300.5C 207.281,299.325 207.614,298.325 208.5,297.5C 211.277,295.821 213.944,294.155 216.5,292.5C 219.308,295.56 222.641,296.227 226.5,294.5C 226.263,293.209 226.596,292.209 227.5,291.5C 227.5,290.5 227.5,289.5 227.5,288.5C 237.913,285.628 248.247,281.961 258.5,277.5C 259.696,277.846 259.696,278.346 258.5,279C 255.498,281.503 252.165,283.503 248.5,285C 247.224,288.69 248.724,290.523 253,290.5C 256.178,288.577 259.512,286.911 263,285.5C 263.833,285.833 264.667,286.167 265.5,286.5C 265.333,286.833 265.167,287.167 265,287.5C 263.122,288.053 261.622,289.053 260.5,290.5 Z"/></g>
<g><path style="opacity:1" fill="#a1895b" d="M 138.5,290.5 C 140.292,290.366 141.958,290.699 143.5,291.5C 143.5,291.833 143.5,292.167 143.5,292.5C 141.597,292.204 139.93,291.537 138.5,290.5 Z"/></g>
<g><path style="opacity:1" fill="#305642" d="M 227.5,288.5 C 227.5,289.5 227.5,290.5 227.5,291.5C 226.596,292.209 226.263,293.209 226.5,294.5C 222.641,296.227 219.308,295.56 216.5,292.5C 217.5,291.833 218.5,291.167 219.5,290.5C 219.5,290.167 219.5,289.833 219.5,289.5C 221.821,289.771 223.821,289.104 225.5,287.5C 226.183,287.863 226.85,288.196 227.5,288.5 Z"/></g>
<g><path style="opacity:1" fill="#2d754e" d="M 295.5,285.5 C 292.5,290.5 288.5,294.5 283.5,297.5C 283.5,296.833 283.5,296.167 283.5,295.5C 283.973,294.094 284.973,293.427 286.5,293.5C 289.521,290.709 292.521,288.042 295.5,285.5 Z"/></g>
<g><path style="opacity:1" fill="#d4dcd8" d="M 227.5,291.5 C 229.5,291.167 231.5,290.833 233.5,290.5C 233.985,295.159 232.152,296.492 228,294.5C 227.517,293.552 227.351,292.552 227.5,291.5 Z"/></g>
<g><path style="opacity:1" fill="#9fb0a7" d="M 260.5,290.5 C 259.316,291.688 259.316,292.855 260.5,294C 262.473,294.495 264.473,294.662 266.5,294.5C 266.134,295.695 265.301,296.361 264,296.5C 262.535,295.67 261.035,295.504 259.5,296C 260.056,296.383 260.389,296.883 260.5,297.5C 256.888,296.757 253.888,295.09 251.5,292.5C 253.315,293.63 255.315,294.296 257.5,294.5C 257.088,292.027 258.088,290.694 260.5,290.5 Z"/></g>
<g><path style="opacity:1" fill="#42785a" d="M 182.5,268.5 C 185.498,271.667 188.331,275 191,278.5C 191.805,281.696 191.638,284.696 190.5,287.5C 189.527,285.052 189.194,282.385 189.5,279.5C 186.284,279.345 183.617,280.345 181.5,282.5C 175.698,288.807 170.032,295.307 164.5,302C 159.835,303.067 155.501,304.567 151.5,306.5C 151.5,305.833 151.5,305.167 151.5,304.5C 156.014,302.191 160.681,300.024 165.5,298C 170.139,291.395 175.472,285.395 181.5,280C 183.345,278.872 185.345,278.372 187.5,278.5C 185.88,275.193 184.213,271.86 182.5,268.5 Z"/></g>
<g><path style="opacity:1" fill="#c3cdc8" d="M 235.5,294.5 C 238.084,294.569 240.084,295.735 241.5,298C 238.045,299.111 236.045,297.944 235.5,294.5 Z"/></g>
<g><path style="opacity:1" fill="#b3c1ba" d="M 286.5,306.5 C 288.542,309.614 290.209,312.948 291.5,316.5C 288.259,314.017 286.592,310.684 286.5,306.5 Z"/></g>
<g><path style="opacity:1" fill="#bee9d3" d="M 315.5,297.5 C 315.761,306.698 313.428,315.032 308.5,322.5C 311.89,314.347 314.223,306.014 315.5,297.5 Z"/></g>
<g><path style="opacity:1" fill="#3b7254" d="M 282.5,297.5 C 283.396,300.069 285.062,302.069 287.5,303.5C 290.289,311.078 294.122,318.078 299,324.5C 300.774,325.965 302.608,327.298 304.5,328.5C 304.631,329.376 304.298,330.043 303.5,330.5C 298.383,326.722 294.383,322.055 291.5,316.5C 290.209,312.948 288.542,309.614 286.5,306.5C 285.018,304.109 283.351,301.776 281.5,299.5C 281.328,298.508 281.662,297.842 282.5,297.5 Z"/></g>
<g><path style="opacity:1" fill="#fcdf89" d="M 317.5,309.5 C 317.326,311.861 316.993,314.194 316.5,316.5C 315.355,314.047 315.688,311.713 317.5,309.5 Z"/></g>
<g><path style="opacity:1" fill="#e8cd81" d="M 316.5,317.5 C 316.5,317.167 316.5,316.833 316.5,316.5C 320.163,316.952 323.83,317.452 327.5,318C 329.491,318.374 331.158,319.207 332.5,320.5C 329.193,319.949 325.86,319.616 322.5,319.5C 320.786,318.262 318.786,317.595 316.5,317.5 Z"/></g>
<g><path style="opacity:1" fill="#3d7356" d="M 190.5,320.5 C 190.5,320.833 190.5,321.167 190.5,321.5C 187.5,321.5 184.5,321.5 181.5,321.5C 177.486,321.334 173.486,321.501 169.5,322C 166.054,323.509 162.72,325.009 159.5,326.5C 158.226,325.811 158.226,324.977 159.5,324C 163.068,323.312 166.401,322.145 169.5,320.5C 176.463,319.524 183.463,319.524 190.5,320.5 Z"/></g>
<g><path style="opacity:1" fill="#c2cdc7" d="M 211.5,321.5 C 204.557,320.573 197.557,320.24 190.5,320.5C 183.463,319.524 176.463,319.524 169.5,320.5C 169.611,319.883 169.944,319.383 170.5,319C 173.5,318.833 176.5,318.667 179.5,318.5C 190.554,318.574 201.221,319.574 211.5,321.5 Z"/></g>
<g><path style="opacity:1" fill="#394392" d="M 322.5,319.5 C 325.86,319.616 329.193,319.949 332.5,320.5C 333.167,320.5 333.5,320.833 333.5,321.5C 335.515,322.924 337.848,323.59 340.5,323.5C 341.833,323.5 343.167,323.5 344.5,323.5C 346.833,324.167 349.167,324.833 351.5,325.5C 351.611,326.117 351.944,326.617 352.5,327C 356.77,328.075 361.103,328.575 365.5,328.5C 367.265,329.461 369.265,329.795 371.5,329.5C 371.323,339.506 370.99,349.506 370.5,359.5C 370.771,361.38 370.104,362.713 368.5,363.5C 366.992,365.181 365.992,367.181 365.5,369.5C 362.179,374.152 358.513,378.485 354.5,382.5C 348.129,389.537 342.129,396.871 336.5,404.5C 333.878,406.782 331.212,409.115 328.5,411.5C 328.167,411.5 327.833,411.5 327.5,411.5C 325.821,411.892 324.154,412.392 322.5,413C 296.835,413.5 271.169,413.667 245.5,413.5C 245.5,413.167 245.5,412.833 245.5,412.5C 241.232,401.697 237.566,390.697 234.5,379.5C 234.5,379.167 234.5,378.833 234.5,378.5C 234.97,377.307 235.97,376.64 237.5,376.5C 241.024,376.099 244.358,375.433 247.5,374.5C 253.688,373.453 259.688,371.787 265.5,369.5C 268.231,368.973 270.898,368.14 273.5,367C 274.756,366.583 275.423,365.75 275.5,364.5C 283.447,359.543 290.781,353.877 297.5,347.5C 300.471,345.557 302.471,342.891 303.5,339.5C 307.336,336.322 310.002,332.322 311.5,327.5C 311.328,326.508 311.662,325.842 312.5,325.5C 314.293,323.574 315.293,321.241 315.5,318.5C 317.806,318.993 320.139,319.326 322.5,319.5 Z"/></g>
<g><path style="opacity:1" fill="#0aad58" d="M 181.5,321.5 C 188.603,323.105 195.937,323.772 203.5,323.5C 203.19,326.713 203.523,329.713 204.5,332.5C 206.511,339.849 208.511,347.182 210.5,354.5C 209.92,358.81 209.586,363.143 209.5,367.5C 208.167,367.5 206.833,367.5 205.5,367.5C 184.538,360.208 169.205,346.541 159.5,326.5C 162.72,325.009 166.054,323.509 169.5,322C 173.486,321.501 177.486,321.334 181.5,321.5 Z"/></g>
<g><path style="opacity:1" fill="#10884c" d="M 181.5,321.5 C 184.5,321.5 187.5,321.5 190.5,321.5C 194.97,322.486 199.637,322.819 204.5,322.5C 204.5,325.833 204.5,329.167 204.5,332.5C 203.523,329.713 203.19,326.713 203.5,323.5C 195.937,323.772 188.603,323.105 181.5,321.5 Z"/></g>
<g><path style="opacity:1" fill="#6b70aa" d="M 316.5,317.5 C 318.786,317.595 320.786,318.262 322.5,319.5C 320.139,319.326 317.806,318.993 315.5,318.5C 315.293,321.241 314.293,323.574 312.5,325.5C 312.292,321.915 313.625,319.249 316.5,317.5 Z"/></g>
<g><path style="opacity:1" fill="#8284ac" d="M 333.5,321.5 C 334.833,321.5 336.167,321.5 337.5,321.5C 338.5,322.167 339.5,322.833 340.5,323.5C 337.848,323.59 335.515,322.924 333.5,321.5 Z"/></g>
<g><path style="opacity:1" fill="#cdbfa4" d="M 337.5,321.5 C 338.833,321.5 340.167,321.5 341.5,321.5C 342.5,322.167 343.5,322.833 344.5,323.5C 343.167,323.5 341.833,323.5 340.5,323.5C 339.5,322.833 338.5,322.167 337.5,321.5 Z"/></g>
<g><path style="opacity:1" fill="#e6cb80" d="M 341.5,321.5 C 345.506,322.222 349.506,323.055 353.5,324C 354.056,324.383 354.389,324.883 354.5,325.5C 353.5,325.5 352.5,325.5 351.5,325.5C 349.167,324.833 346.833,324.167 344.5,323.5C 343.5,322.833 342.5,322.167 341.5,321.5 Z"/></g>
<g><path style="opacity:1" fill="#6f72a7" d="M 351.5,325.5 C 352.5,325.5 353.5,325.5 354.5,325.5C 355.5,325.5 356.5,325.5 357.5,325.5C 360.02,326.918 362.687,327.918 365.5,328.5C 361.103,328.575 356.77,328.075 352.5,327C 351.944,326.617 351.611,326.117 351.5,325.5 Z"/></g>
<g><path style="opacity:1" fill="#d8c79f" d="M 357.5,325.5 C 360.807,326.051 364.14,326.384 367.5,326.5C 368.919,327.451 370.585,327.784 372.5,327.5C 372.5,327.833 372.5,328.167 372.5,328.5C 370.167,328.5 367.833,328.5 365.5,328.5C 362.687,327.918 360.02,326.918 357.5,325.5 Z"/></g>
<g><path style="opacity:1" fill="#47785d" d="M 190.5,321.5 C 195.5,321.5 200.5,321.5 205.5,321.5C 205.185,325.371 205.518,329.038 206.5,332.5C 208.768,340.331 211.101,348.164 213.5,356C 212.954,359.871 212.288,363.704 211.5,367.5C 209.364,368.793 207.364,368.793 205.5,367.5C 206.833,367.5 208.167,367.5 209.5,367.5C 210.952,365.152 211.618,362.486 211.5,359.5C 211.493,357.631 211.16,355.964 210.5,354.5C 208.511,347.182 206.511,339.849 204.5,332.5C 204.5,329.167 204.5,325.833 204.5,322.5C 199.637,322.819 194.97,322.486 190.5,321.5 Z"/></g>
<g><path style="opacity:1" fill="#90d6f5" d="M 154.5,327.5 C 155.497,327.47 156.164,327.97 156.5,329C 172.609,359.912 198.276,375.412 233.5,375.5C 233.263,376.791 233.596,377.791 234.5,378.5C 234.5,378.833 234.5,379.167 234.5,379.5C 236.22,390.993 239.554,401.993 244.5,412.5C 196.5,412.5 148.5,412.5 100.5,412.5C 100.5,411.833 100.5,411.167 100.5,410.5C 104.767,402.963 109.767,395.963 115.5,389.5C 119.666,386.585 122.332,382.585 123.5,377.5C 131.093,364.64 139.427,352.307 148.5,340.5C 150.326,338.853 151.66,336.853 152.5,334.5C 153.933,332.442 154.6,330.108 154.5,327.5 Z"/></g>
<g><path style="opacity:1" fill="#658ec5" d="M 152.5,334.5 C 151.66,336.853 150.326,338.853 148.5,340.5C 148.845,337.802 150.178,335.802 152.5,334.5 Z"/></g>
<g><path style="opacity:1" fill="#0aad58" d="M 253.5,337.5 C 255.794,339.388 258.461,340.722 261.5,341.5C 265.919,342.972 270.586,343.638 275.5,343.5C 279.509,343.858 283.509,344.358 287.5,345C 288.823,345.816 289.489,346.983 289.5,348.5C 285.047,353.221 280.047,357.221 274.5,360.5C 272.033,360.755 270.033,361.755 268.5,363.5C 265.603,364.129 262.936,365.129 260.5,366.5C 252.036,370.191 243.036,371.858 233.5,371.5C 234.294,366.541 235.128,361.541 236,356.5C 238.475,352.525 241.309,348.858 244.5,345.5C 247.687,343.656 249.687,340.989 250.5,337.5C 251.5,337.5 252.5,337.5 253.5,337.5 Z"/></g>
<g><path style="opacity:1" fill="#878bbc" d="M 311.5,327.5 C 310.002,332.322 307.336,336.322 303.5,339.5C 305.477,335.847 307.477,332.181 309.5,328.5C 309.957,327.702 310.624,327.369 311.5,327.5 Z"/></g>
<g><path style="opacity:1" fill="#3a7355" d="M 253.5,337.5 C 256.598,337.756 259.598,338.422 262.5,339.5C 270.84,340.281 279.173,341.448 287.5,343C 290.136,344.41 290.803,346.243 289.5,348.5C 289.489,346.983 288.823,345.816 287.5,345C 283.509,344.358 279.509,343.858 275.5,343.5C 271.081,342.028 266.414,341.362 261.5,341.5C 258.461,340.722 255.794,339.388 253.5,337.5 Z"/></g>
<g><path style="opacity:1" fill="#13844b" d="M 261.5,341.5 C 266.414,341.362 271.081,342.028 275.5,343.5C 270.586,343.638 265.919,342.972 261.5,341.5 Z"/></g>
<g><path style="opacity:0.655" fill="#a9adcf" d="M 365.5,328.5 C 367.833,328.5 370.167,328.5 372.5,328.5C 372.5,333.5 372.5,338.5 372.5,343.5C 372.048,348.998 371.381,354.331 370.5,359.5C 370.99,349.506 371.323,339.506 371.5,329.5C 369.265,329.795 367.265,329.461 365.5,328.5 Z"/></g>
<g><path style="opacity:1" fill="#2c794f" d="M 253.5,337.5 C 252.5,337.5 251.5,337.5 250.5,337.5C 249.687,340.989 247.687,343.656 244.5,345.5C 245.167,343.833 245.833,342.167 246.5,340.5C 246.932,339.29 247.599,338.29 248.5,337.5C 250.284,336.28 251.95,336.28 253.5,337.5 Z"/></g>
<g><path style="opacity:0.739" fill="#f9f9fc" d="M 372.5,343.5 C 375.561,345.83 377.228,348.997 377.5,353C 377.661,359.78 374.661,364.28 368.5,366.5C 368.5,365.5 368.5,364.5 368.5,363.5C 370.104,362.713 370.771,361.38 370.5,359.5C 371.381,354.331 372.048,348.998 372.5,343.5 Z"/></g>
<g><path style="opacity:1" fill="#888dbd" d="M 303.5,339.5 C 302.471,342.891 300.471,345.557 297.5,347.5C 299.016,344.467 301.016,341.8 303.5,339.5 Z"/></g>
<g><path style="opacity:0.372" fill="#848bbb" d="M 97.5,274.5 C 98.8333,274.5 100.167,274.5 101.5,274.5C 101.5,274.833 101.5,275.167 101.5,275.5C 100.5,275.5 99.5,275.5 98.5,275.5C 98.3333,320.835 98.5,366.168 99,411.5C 99.3826,410.944 99.8826,410.611 100.5,410.5C 100.5,411.167 100.5,411.833 100.5,412.5C 99.8333,412.5 99.1667,412.5 98.5,412.5C 97.5012,366.67 97.1679,320.67 97.5,274.5 Z"/></g>
<g><path style="opacity:1" fill="#24784c" d="M 210.5,354.5 C 211.16,355.964 211.493,357.631 211.5,359.5C 211.618,362.486 210.952,365.152 209.5,367.5C 209.586,363.143 209.92,358.81 210.5,354.5 Z"/></g>
<g><path style="opacity:1" fill="#83d5aa" d="M 274.5,360.5 C 272.967,362.245 270.967,363.245 268.5,363.5C 270.033,361.755 272.033,360.755 274.5,360.5 Z"/></g>
<g><path style="opacity:1" fill="#4d7c63" d="M 246.5,340.5 C 245.833,342.167 245.167,343.833 244.5,345.5C 241.309,348.858 238.475,352.525 236,356.5C 235.128,361.541 234.294,366.541 233.5,371.5C 232.282,366.288 232.449,360.954 234,355.5C 237.243,349.65 241.409,344.65 246.5,340.5 Z"/></g>
<g><path style="opacity:1" fill="#8ad8af" d="M 268.5,363.5 C 266.383,365.655 263.716,366.655 260.5,366.5C 262.936,365.129 265.603,364.129 268.5,363.5 Z"/></g>
<g><path style="opacity:1" fill="#858abb" d="M 275.5,364.5 C 275.423,365.75 274.756,366.583 273.5,367C 270.898,368.14 268.231,368.973 265.5,369.5C 268.368,367.088 271.701,365.421 275.5,364.5 Z"/></g>
<g><path style="opacity:0.404" fill="#9fa3ca" d="M 368.5,363.5 C 368.5,364.5 368.5,365.5 368.5,366.5C 367.833,367.833 366.833,368.833 365.5,369.5C 365.992,367.181 366.992,365.181 368.5,363.5 Z"/></g>
<g><path style="opacity:1" fill="#8c96c3" d="M 247.5,374.5 C 244.358,375.433 241.024,376.099 237.5,376.5C 235.97,376.64 234.97,377.307 234.5,378.5C 233.596,377.791 233.263,376.791 233.5,375.5C 238.152,375.002 242.819,374.669 247.5,374.5 Z"/></g>
<g><path style="opacity:1" fill="#6c9acd" d="M 123.5,377.5 C 122.332,382.585 119.666,386.585 115.5,389.5C 117.782,385.223 120.449,381.223 123.5,377.5 Z"/></g>
<g><path style="opacity:0.918" fill="#f6f7fa" d="M 354.5,382.5 C 353.385,384.307 352.719,386.307 352.5,388.5C 354.036,393.785 352.869,398.451 349,402.5C 343.881,406.652 339.048,411.152 334.5,416C 331.446,418.194 328.112,419.861 324.5,421C 299.516,422.82 274.516,422.82 249.5,421C 247.829,419.157 246.829,416.991 246.5,414.5C 272.169,414.667 297.835,414.5 323.5,414C 325.32,413.8 326.653,412.966 327.5,411.5C 327.833,411.5 328.167,411.5 328.5,411.5C 332.407,410.593 335.074,408.26 336.5,404.5C 342.129,396.871 348.129,389.537 354.5,382.5 Z"/></g>
<g><path style="opacity:1" fill="#7bb3de" d="M 234.5,379.5 C 237.566,390.697 241.232,401.697 245.5,412.5C 245.167,412.5 244.833,412.5 244.5,412.5C 239.554,401.993 236.22,390.993 234.5,379.5 Z"/></g>
<g><path style="opacity:1" fill="#acafd1" d="M 336.5,404.5 C 335.074,408.26 332.407,410.593 328.5,411.5C 331.212,409.115 333.878,406.782 336.5,404.5 Z"/></g>
<g><path style="opacity:0.453" fill="#bae6f9" d="M 98.5,412.5 C 99.1667,412.5 99.8333,412.5 100.5,412.5C 148.5,412.5 196.5,412.5 244.5,412.5C 244.833,412.5 245.167,412.5 245.5,412.5C 245.5,412.833 245.5,413.167 245.5,413.5C 245.5,413.833 245.5,414.167 245.5,414.5C 196.402,413.838 147.402,413.171 98.5,412.5 Z"/></g>
<g><path style="opacity:1" fill="#9ca1c9" d="M 327.5,411.5 C 326.653,412.966 325.32,413.8 323.5,414C 297.835,414.5 272.169,414.667 246.5,414.5C 246.167,414.5 245.833,414.5 245.5,414.5C 245.5,414.167 245.5,413.833 245.5,413.5C 271.169,413.667 296.835,413.5 322.5,413C 324.154,412.392 325.821,411.892 327.5,411.5 Z"/></g>
</svg>
